<svg width="20" height="13" viewBox="0 0 20 13" fill="" xmlns="http://www.w3.org/2000/svg">
<path d="M19.5489 2.69091C19.2199 2.36364 18.656 2.18182 18.0921 2.18182H5.07519L4.88722 1.23636C4.74624 0.545455 3.94737 0 3.00752 0H0V0.727273H3.00752C3.47744 0.727273 3.90038 0.981818 3.94737 1.34545L5.92105 11.2C6.10902 11.8909 6.9079 12.4 7.80075 12.4H17.8571V11.6727H7.80075C7.33083 11.6727 6.95489 11.4182 6.8609 11.0545L6.67293 10.1818H17.1053C17.9981 10.1818 18.797 9.67273 18.985 8.90909L19.9718 3.81818C20.0658 3.41818 19.9248 3.01818 19.5489 2.69091ZM19.032 3.74545L18.0451 8.83636C17.9511 9.23636 17.5752 9.49091 17.1053 9.49091H6.53195L5.21617 2.94545H18.0921C18.3741 2.94545 18.656 3.05455 18.844 3.2C19.032 3.30909 19.0789 3.52727 19.032 3.74545Z" fill="white"/>
</svg>
